<svg width="19" height="21" viewBox="0 0 19 21" fill="none" xmlns="http://www.w3.org/2000/svg">
<path d="M17.623 4.29949L10.5714 0.270065H10.5717C10.2653 0.0932237 9.91797 0 9.56425 0C9.21053 0 8.86323 0.0932237 8.55682 0.270065L1.50522 4.29949H1.50545C1.19838 4.47657 0.94354 4.73164 0.766716 5.03895C0.589875 5.34602 0.497118 5.69458 0.498054 6.04896V14.1079C0.497117 14.4623 0.589869 14.8109 0.766716 15.1179C0.943558 15.4252 1.1984 15.6803 1.50545 15.8574L8.55705 19.8868H8.55682C9.18031 20.2468 9.94813 20.2468 10.5717 19.8868L17.6233 15.8574H17.623C17.9301 15.6803 18.185 15.4252 18.3618 15.1179C18.5386 14.8109 18.6314 14.4623 18.6304 14.1079V6.04896C18.6314 5.69457 18.5386 5.34602 18.3618 5.03895C18.1849 4.73164 17.9301 4.47657 17.623 4.29949ZM16.6159 14.1076L9.56426 18.137L2.51266 14.1076V6.0486L9.56426 2.01917L16.6159 6.0486V14.1076Z" fill="white"/>
<path d="M7.54955 7.0565C7.54955 7.61279 7.09866 8.0637 6.54236 8.0637C5.98583 8.0637 5.53493 7.61281 5.53493 7.0565C5.53493 6.49998 5.98582 6.04907 6.54236 6.04907C7.09865 6.04907 7.54955 6.49996 7.54955 7.0565Z" fill="white"/>
<path d="M13.5936 13.1007C13.5936 13.6572 13.1427 14.1081 12.5862 14.1081C12.0299 14.1081 11.579 13.6572 11.579 13.1007C11.579 12.5444 12.0299 12.0935 12.5862 12.0935C13.1427 12.0935 13.5936 12.5444 13.5936 13.1007Z" fill="white"/>
<path d="M5.49481 12.7236L12.2094 6.00903L13.634 7.43362L6.9194 14.1482L5.49481 12.7236Z" fill="white"/>
</svg>
