<svg width="25" height="20" viewBox="0 0 25 20" fill="none" xmlns="http://www.w3.org/2000/svg">
<path d="M10.4321 6.13377H13.9112C15.4027 6.13377 16.6258 7.35718 16.6258 8.84849V10.1171C16.6258 10.3354 16.4484 10.5123 16.2301 10.5123H8.11319C7.89491 10.5123 7.71794 10.3354 7.71794 10.1171V8.84849C7.71794 7.35664 8.94096 6.13377 10.4325 6.13377H10.4321ZM2.71463 15.6216H6.19373C7.68519 15.6216 8.90826 16.8447 8.90826 18.3362V19.6047C8.90826 19.823 8.73091 20 8.51262 20H0.395691C0.177408 20 0.000434875 19.823 0.000434875 19.6047V18.3362C0.000434875 16.8447 1.22346 15.6216 2.71497 15.6216H2.71463ZM18.1491 15.6216H21.6282C23.1197 15.6216 24.3428 16.8447 24.3428 18.3362V19.6047C24.3428 19.823 24.1658 20 23.9475 20H15.8306C15.6123 20 15.435 19.823 15.435 19.6047V18.3362C15.435 16.8447 16.658 15.6216 18.1495 15.6216H18.1491ZM19.8885 9.48807C21.4278 9.48807 22.6758 10.7361 22.6758 12.275C22.6758 13.8143 21.4278 15.0619 19.8885 15.0619C18.3496 15.0619 17.1015 13.8141 17.1015 12.275C17.1015 10.7384 18.3519 9.48807 19.8885 9.48807ZM19.8885 10.279C18.7838 10.279 17.8924 11.1703 17.8924 12.275C17.8924 13.3776 18.7861 14.2711 19.8885 14.2711C20.991 14.2711 21.8849 13.3776 21.8849 12.275C21.8849 11.1725 20.9912 10.279 19.8885 10.279ZM21.6282 16.4125H18.1491C17.0898 16.4125 16.2256 17.2766 16.2256 18.336V19.2089H23.5516V18.336C23.5516 17.2767 22.6875 16.4125 21.6281 16.4125H21.6282ZM4.45381 9.48797C5.99274 9.48797 7.24114 10.736 7.24114 12.2749C7.24114 13.8142 5.99274 15.0618 4.45381 15.0618C2.91489 15.0618 1.66687 13.814 1.66687 12.2749C1.66687 10.7383 2.9172 9.48797 4.45381 9.48797ZM4.45381 10.2789C3.34914 10.2789 2.45776 11.1702 2.45776 12.2749C2.45776 13.3775 3.35145 14.271 4.45381 14.271C5.55617 14.271 6.44987 13.3775 6.44987 12.2749C6.44987 11.1724 5.55637 10.2789 4.45381 10.2789ZM6.19353 16.4124H2.71443C1.65512 16.4124 0.790986 17.2765 0.790986 18.3359V19.2088H8.11693V18.3359C8.11693 17.2766 7.25285 16.4124 6.19348 16.4124H6.19353ZM12.1712 0C13.7101 0 14.9581 1.24801 14.9581 2.78694C14.9581 4.32587 13.7101 5.57388 12.1712 5.57388C10.6322 5.57388 9.38423 4.32587 9.38423 2.78694C9.38423 1.25033 10.6342 0 12.1712 0ZM12.1712 0.790885C11.0665 0.790885 10.1751 1.68227 10.1751 2.78694C10.1751 3.8893 11.0688 4.78299 12.1712 4.78299C13.2735 4.78299 14.1672 3.8893 14.1672 2.78694C14.1672 1.68438 13.2737 0.790885 12.1712 0.790885ZM13.9109 6.92396H10.4318C9.37247 6.92396 8.50834 7.78804 8.50834 8.84776V9.72069H15.8343V8.84776C15.8343 7.78844 14.9702 6.92396 13.9108 6.92396H13.9109Z" fill="white"/>
</svg>
