<svg width="35" height="35" viewBox="0 0 35 35" fill="none" xmlns="http://www.w3.org/2000/svg">
<path d="M22.0358 0.619018C21.7751 1.59196 21.5228 2.52855 21.2642 3.49294C16.4951 2.40773 12.1611 3.22885 8.36046 6.29843C5.43621 8.66021 3.70901 11.7565 3.19706 15.4794C2.08336 23.5783 7.65398 30.6679 15.359 31.797C19.6941 32.432 23.6102 31.3297 26.9459 28.4612C30.2614 25.6097 31.8806 21.9221 31.9928 17.53H35.0015C35.0165 19.8832 34.5612 22.1445 33.6313 24.3053C32.0271 28.0346 29.4405 30.8924 25.8889 32.8576C18.9502 36.698 10.1422 35.2664 4.73293 29.4362C-0.7928 23.4821 -1.57196 14.717 2.88069 7.92035C7.41777 0.995365 15.5215 -1.22209 22.0358 0.619018Z" fill="#959595"/>
<path d="M18.2697 16.7816C16.4923 15.1426 16.254 13.0684 17.6958 11.4337C18.9923 9.96355 20.6959 9.73582 22.4947 10.1624C24.1076 10.5452 25.1347 11.6069 25.4724 13.2427C25.7407 14.5439 25.3955 15.6772 24.3277 16.5368C24.2326 16.6138 24.1418 16.695 24.006 16.8105C25.0128 17.3451 25.6637 18.1341 25.9609 19.199C26.7539 22.0366 24.7542 24.7747 21.7412 24.9811C20.1273 25.0912 18.6567 24.7576 17.4735 23.574C15.8072 21.9061 15.5069 18.3276 18.2697 16.7816ZM23.7239 20.4414C23.7281 18.9895 22.6048 17.8593 21.1641 17.8658C19.6891 17.8722 18.6278 18.9189 18.6128 20.3804C18.5979 21.8292 19.7094 22.9411 21.1833 22.9507C22.6529 22.9603 23.7207 21.9072 23.7249 20.4414H23.7239ZM19.1868 13.8906C19.159 15.0015 19.9766 15.8162 21.1406 15.8343C22.2585 15.8525 23.1264 15.0592 23.1531 13.9932C23.1788 12.9615 22.2906 12.0591 21.2303 12.0399C20.0536 12.0185 19.2146 12.7787 19.1868 13.8906Z" fill="#959595"/>
<path d="M12.2717 24.7236V14.4328C11.1612 15.022 10.0924 15.5875 8.8943 16.2237C8.8943 15.3705 8.8772 14.6991 8.91034 14.0319C8.91675 13.9079 9.107 13.7561 9.24701 13.6823C10.7188 12.9093 12.0302 11.9631 12.9045 10.4972C12.9889 10.355 13.2871 10.2823 13.488 10.277C14.5975 10.2503 14.5975 10.261 14.5975 11.3504C14.5975 15.5544 14.5975 19.7584 14.5975 23.9634C14.5975 24.4709 14.3349 24.7246 13.8097 24.7246C13.3149 24.7246 12.8211 24.7246 12.2717 24.7246V24.7236Z" fill="#959595"/>
<path d="M34.1527 6.6858V9.23683H30.7143V12.7041H28.1631V9.26891H24.7226V6.72429H28.1182V3.28906H30.6769V6.6858H34.1527Z" fill="#959595"/>
</svg>
