<svg width="32" height="35" viewBox="0 0 32 35" fill="none" xmlns="http://www.w3.org/2000/svg">
<g clip-path="url(#clip0_1824_1975)">
<path d="M5.01465 32.4576C4.94662 33.9965 3.89948 34.9977 2.50004 34.9977C1.7663 34.9977 1.13461 34.7181 0.63655 34.1661C0.221092 33.7097 0 33.1171 0 32.4504C0 31.7837 0.262395 31.1553 0.767747 30.6654C1.24637 30.1947 1.83433 29.9629 2.55349 29.9629C3.55691 29.9629 4.33437 30.448 4.71339 31.2843H3.83388C3.50831 30.8757 3.05155 30.6654 2.49761 30.6654C2.03356 30.6654 1.60352 30.8423 1.27796 31.1696C0.930529 31.5161 0.738592 31.994 0.738592 32.4576C0.738592 32.969 0.918381 33.4325 1.23666 33.7599C1.5768 34.1064 2.04085 34.3047 2.49761 34.3047C3.23863 34.3047 3.8193 33.9152 4.19346 33.141H1.9631V32.46H5.00979L5.01465 32.4576Z" fill="#959595"/>
<path d="M5.78239 34.9044H5.02679L6.95345 30.0608H7.64588L9.57011 34.9044H8.78778L8.24842 33.4946H6.33634L5.78239 34.9044ZM7.29845 30.9736L6.59144 32.8136H7.99088L7.29845 30.9736Z" fill="#959595"/>
<path d="M9.83739 34.9044V30.0608H10.8967L12.3229 33.8076L13.749 30.0608H14.7962V34.9044H14.1232L14.1718 30.7012L12.5707 34.9044H12.0653L10.4715 30.7012L10.5201 34.9044H9.83496H9.83739Z" fill="#959595"/>
<path d="M17.9328 35.0002C17.2039 35.0002 16.5892 34.7349 16.1033 34.2307C15.6392 33.748 15.4036 33.1482 15.4036 32.4314C15.4036 31.7647 15.6611 31.1506 16.1519 30.6798C16.6378 30.2091 17.2476 29.9653 17.9449 29.9653C19.0941 29.9653 20.0781 30.7085 20.3964 31.9009H19.0941C18.8317 31.423 18.4357 31.1721 17.9522 31.1721C17.2185 31.1721 16.6426 31.7312 16.6426 32.4385C16.6426 33.208 17.2525 33.8006 17.9303 33.8006C18.3944 33.8006 18.8025 33.5545 19.0649 33.1052H20.3745C20.0489 34.2833 19.1135 34.9978 17.9303 34.9978L17.9328 35.0002Z" fill="#959595"/>
<path d="M21.5941 34.9044H20.2773L22.1675 30.0608H23.1515L25.0417 34.9044H23.7127L23.4698 34.2019H21.8419L21.5917 34.9044H21.5941ZM22.6607 31.6475L22.1699 33.2007H23.1466L22.6607 31.6475Z" fill="#959595"/>
<path d="M25.1389 34.9044V30.0608H26.774C27.2939 30.0608 27.6875 30.0942 28.0203 30.326C28.4577 30.6247 28.686 31.0811 28.686 31.6809C28.686 32.4647 28.2706 33.0501 27.5709 33.2413L28.7759 34.9044H27.2866L26.3439 33.3441V34.9044H25.1389ZM26.5796 32.295C27.1748 32.295 27.4664 32.1445 27.4664 31.7096C27.4664 31.3081 27.2113 31.1433 26.6768 31.1433H26.3439V32.295H26.5796Z" fill="#959595"/>
<path d="M29.3226 34.9044V30.0608H31.9952V31.1313H30.5277V31.9151H31.9952V32.9904H30.5277V33.8363H31.9952V34.9068H29.3226V34.9044Z" fill="#959595"/>
<path d="M31.1229 16.7579C30.9917 16.6839 30.8459 16.6361 30.688 16.6146C30.6515 16.6074 30.6151 16.6074 30.5762 16.6026C30.5568 16.6026 30.5373 16.5978 30.5179 16.5978H30.462C30.4134 16.5978 30.3624 16.593 30.3138 16.5978H20.683C20.0027 16.5978 19.4487 17.1403 19.4487 17.8117C19.4487 18.4832 20.0002 19.0256 20.683 19.0256H24.4245C24.5484 19.0256 24.648 19.126 24.648 19.2479C24.648 19.3172 24.6092 19.3769 24.5581 19.4175C22.5076 20.4952 19.869 21.1476 16.9803 21.1476C16.2781 21.1476 15.5906 21.1069 14.9224 21.0329V23.788C15.5055 23.831 16.0959 23.8549 16.696 23.8549C20.7145 23.8549 24.3686 22.8896 27.1092 21.3101V21.3148C27.1432 21.2981 27.1821 21.2862 27.2234 21.2862C27.357 21.2862 27.4663 21.3937 27.4663 21.5251C27.4663 21.549 27.4615 21.5729 27.4542 21.5944L26.8832 23.119C26.582 23.9219 26.9999 24.8108 27.8162 25.1047C27.996 25.1692 28.1782 25.2003 28.3604 25.2003C29.0018 25.2003 29.6019 24.8132 29.8376 24.1871L31.9028 18.6744C32.1822 17.9264 31.8323 17.1068 31.1229 16.7603V16.7579Z" fill="#959595"/>
<path d="M16.9827 6.34668C19.8934 6.34668 22.5562 7.0062 24.614 8.09823C24.614 8.09823 25.9211 9.023 26.5431 8.13647C27.2574 7.11612 25.8313 6.48288 25.8313 6.48288C23.2778 5.30244 20.1169 4.60229 16.6985 4.60229C16.0984 4.60229 15.508 4.62619 14.9249 4.6692V6.46138C15.593 6.3873 16.2806 6.34668 16.9827 6.34668Z" fill="#959595"/>
<path d="M2.19631 0C0.993671 0 0.0194092 0.958217 0.0194092 2.14105V25.4919C0.0194092 26.6747 0.993671 27.633 2.19631 27.633H14.9249V23.7858C7.26685 23.2362 1.3168 19.1667 1.3168 14.2275C1.3168 9.28825 7.26685 5.21882 14.9249 4.66922V0H2.19631Z" fill="#959595"/>
<path d="M5.17255 13.7448C5.17255 17.3913 9.38301 20.4189 14.9249 21.0282V6.46143C9.38301 7.07077 5.17255 10.0983 5.17255 13.7448Z" fill="#959595"/>
</g>
<defs>
<clipPath id="clip0_1824_1975">
<rect width="32" height="35" fill="white"/>
</clipPath>
</defs>
</svg>
