<?xml version="1.0" standalone="no"?>
<!DOCTYPE svg PUBLIC "-//W3C//DTD SVG 20010904//EN"
 "http://www.w3.org/TR/2001/REC-SVG-20010904/DTD/svg10.dtd">
<svg version="1.0" xmlns="http://www.w3.org/2000/svg"
 width="512.000000pt" height="512.000000pt" viewBox="0 0 512.000000 512.000000"
 preserveAspectRatio="xMidYMid meet">
<metadata>
Created by potrace 1.16, written by Peter Selinger 2001-2019
</metadata>
<g transform="translate(0.000000,512.000000) scale(0.100000,-0.100000)"
fill="#000000" stroke="none">
<path d="M2380 4144 c-200 -24 -424 -90 -549 -162 -139 -81 -200 -131 -389
-322 l-184 -185 64 89 c34 49 113 139 173 200 76 76 90 94 46 56 -122 -104
-265 -283 -345 -432 l-39 -73 48 45 47 45 -36 -72 c-50 -101 -45 -105 8 -6 60
111 147 223 246 316 97 91 123 100 80 27 -33 -55 -36 -70 -19 -87 7 -7 8 -19
4 -30 -5 -10 -7 -24 -6 -32 1 -7 -2 -10 -7 -7 -5 3 -14 0 -20 -7 -10 -12 -12
-18 -12 -37 0 -5 -5 -9 -12 -7 -7 1 -12 -5 -13 -13 0 -8 -11 -35 -23 -59 -29
-53 -11 -45 25 12 47 76 127 168 171 197 36 24 48 27 70 19 25 -9 26 -8 8 6
-11 8 -25 15 -32 15 -15 0 -80 -44 -124 -83 l-35 -32 30 34 c35 39 112 91 135
91 36 0 48 -31 49 -133 1 -54 5 -105 8 -113 3 -8 2 -42 -2 -77 l-6 -62 -112
-69 c-131 -81 -176 -100 -211 -86 -32 12 -46 39 -45 87 l2 38 7 -44 c8 -49 31
-72 69 -70 l26 2 -25 4 c-64 12 -75 56 -35 142 32 68 27 76 -9 13 -15 -26 -24
-36 -21 -22 19 70 18 80 -4 77 -11 -2 -24 -7 -28 -12 -5 -4 -2 -5 4 -1 7 4
-10 -16 -37 -44 -28 -29 -47 -56 -44 -64 3 -8 0 -17 -7 -22 -8 -5 -10 -3 -4 6
5 8 4 11 -3 6 -6 -4 -9 -13 -6 -20 3 -8 0 -17 -7 -22 -8 -5 -10 -3 -4 6 5 8 4
11 -3 6 -6 -4 -9 -13 -6 -20 3 -8 0 -17 -7 -22 -8 -5 -10 -3 -4 6 5 9 4 11 -4
6 -6 -4 -9 -11 -6 -16 3 -5 -8 -35 -24 -67 -17 -33 -41 -110 -55 -178 -14 -66
-35 -160 -47 -210 -12 -49 -25 -124 -29 -165 -7 -60 -8 -48 -4 60 6 181 22
345 41 402 8 26 11 53 7 59 -4 8 -3 9 5 5 6 -4 14 0 18 10 5 14 7 14 18 -5 11
-22 11 -22 24 5 10 23 10 26 -2 16 -11 -9 -16 -7 -26 11 -9 18 -9 31 4 66 23
65 18 63 -16 -6 -16 -35 -37 -63 -45 -63 -8 0 -15 -4 -15 -10 -2 -14 -4 -22
-16 -50 -5 -14 -13 -37 -17 -52 -5 -23 -3 -26 10 -21 13 5 15 1 10 -23 -15
-72 -26 -162 -25 -199 1 -24 6 -6 12 45 5 47 12 79 14 73 3 -7 0 -61 -6 -120
-6 -58 -11 -160 -11 -225 0 -65 -4 -118 -8 -118 -4 0 -14 6 -22 13 -8 6 -5 1
7 -13 13 -16 27 -57 38 -110 23 -112 118 -405 163 -500 l35 -75 8 40 c7 41 12
108 9 135 -1 11 -4 9 -10 -5 -8 -19 -9 -19 -9 2 -1 13 8 27 21 34 28 15 141 6
172 -15 13 -8 47 -53 74 -98 53 -87 117 -155 217 -230 70 -53 130 -116 140
-147 8 -26 -19 -76 -57 -104 l-27 -21 -122 62 c-117 60 -139 66 -139 37 0 -37
212 -191 384 -277 98 -49 124 -55 92 -19 -29 32 -16 53 46 78 65 26 195 101
249 144 l37 29 94 -15 c51 -8 113 -15 138 -15 28 0 56 -8 75 -20 17 -11 47
-20 67 -20 88 0 262 52 391 117 114 57 137 37 92 -79 -23 -57 -33 -72 -64 -87
-55 -29 -166 -60 -266 -75 -56 -9 -75 -14 -52 -15 48 -1 224 34 280 56 23 9
59 27 80 41 58 35 54 21 -4 -16 -67 -45 -163 -80 -262 -95 -129 -21 -168 -2
-159 77 3 28 11 37 43 51 22 10 38 19 37 21 -2 1 -26 -2 -54 -8 -41 -8 -63 -7
-107 6 -56 16 -110 22 -75 8 30 -13 79 -63 76 -79 -8 -40 -51 -54 -204 -69
-134 -14 -207 -13 -354 1 l-45 5 45 -16 c25 -8 113 -25 197 -38 161 -25 173
-29 173 -52 0 -18 0 -18 65 11 31 13 53 20 50 14 -8 -12 86 -4 253 22 151 23
188 24 196 3 7 -19 21 -15 149 44 62 29 96 50 93 58 -3 7 23 36 57 65 34 29
66 56 71 61 5 4 -22 -1 -60 -12 -38 -11 -80 -20 -93 -20 -20 0 -22 3 -16 28 3
15 22 59 40 97 28 57 43 76 86 105 29 19 86 66 127 103 47 44 79 66 89 63 8
-3 17 -6 19 -6 2 0 4 -8 3 -17 0 -11 -3 -13 -6 -5 -10 25 -40 10 -98 -50 l-60
-62 63 58 c34 32 68 56 74 54 7 -3 15 -15 19 -29 5 -19 7 -20 8 -5 1 11 3 17
6 14 9 -9 -6 -58 -16 -52 -5 3 -6 -1 -4 -9 6 -15 -95 -116 -192 -191 -35 -27
-63 -51 -63 -53 0 -11 103 72 186 149 50 48 110 96 133 107 73 38 163 139 250
284 32 53 18 46 -20 -10 -99 -145 -188 -207 -229 -158 -25 30 18 150 99 275
23 36 70 120 103 187 96 192 134 223 159 131 13 -52 2 -138 -36 -255 -13 -42
-22 -79 -20 -81 9 -9 87 260 106 366 28 154 29 376 4 517 -10 55 -19 118 -20
140 -1 22 -7 52 -13 66 -6 15 -8 30 -5 33 4 3 1 6 -6 6 -8 0 -10 7 -6 21 5 16
4 19 -6 14 -9 -6 -11 -3 -6 8 4 10 2 17 -4 17 -6 0 -9 7 -5 15 3 8 1 15 -4 15
-5 0 -6 7 -3 17 5 12 3 14 -7 8 -10 -6 -12 -4 -7 8 3 10 2 17 -4 17 -6 0 -7 5
-4 10 3 6 1 10 -5 10 -6 0 -8 5 -5 10 3 6 1 10 -5 10 -6 0 -8 5 -5 10 3 6 1
10 -5 10 -6 0 -8 4 -5 10 6 9 -21 70 -31 70 -3 0 -2 -4 1 -10 3 -5 4 -10 1
-10 -3 0 -10 10 -17 21 -8 16 -8 20 1 14 9 -6 9 -2 1 14 -7 11 -14 21 -17 21
-3 0 -2 -4 1 -10 3 -5 4 -10 2 -10 -3 0 -24 26 -48 58 -56 73 -188 211 -261
273 -57 47 -57 48 -25 44 33 -4 55 -24 206 -190 36 -38 54 -54 41 -35 -43 65
-264 275 -358 340 -88 62 -184 121 -171 107 3 -4 34 -25 70 -48 87 -56 201
-141 196 -146 -2 -2 -45 27 -95 64 -51 38 -133 91 -183 118 -50 28 -99 57
-108 65 -10 8 -24 17 -32 19 -8 3 -59 20 -114 39 -160 53 -215 62 -410 66 -99
2 -196 2 -215 0z m546 -58 c67 -23 134 -53 134 -60 0 -2 -33 3 -72 10 -95 18
-97 18 -110 -11 -11 -24 -11 -24 -34 -6 -13 10 -49 29 -79 41 -57 23 -61 35
-15 43 59 10 111 6 176 -17z m-416 1 c0 -30 -45 -55 -109 -62 -35 -4 -77 -11
-92 -15 -31 -9 -189 8 -189 20 0 5 19 16 43 25 101 38 347 61 347 32z m-590
-95 c-75 -37 -162 -86 -195 -110 -39 -28 -48 -32 -25 -12 48 42 188 127 269
161 113 49 92 31 -49 -39z m886 23 c13 -9 22 -20 19 -25 -4 -6 1 -7 11 -3 11
4 15 2 11 -4 -4 -6 12 -15 36 -23 139 -41 264 -127 288 -197 12 -39 0 -86 -34
-129 l-21 -27 24 7 c102 31 130 29 188 -13 26 -18 76 -91 53 -77 -14 9 -14 3
1 -29 7 -15 14 -21 18 -15 16 26 17 -169 1 -226 -23 -86 -43 -103 -201 -166
-163 -66 -199 -71 -235 -32 -46 50 -42 116 12 214 14 25 51 104 82 175 l56
130 68 17 c79 20 104 14 155 -35 17 -17 32 -26 32 -20 0 6 -18 27 -40 47 -33
30 -48 36 -84 36 -24 0 -63 -7 -87 -15 -63 -23 -104 -17 -137 20 l-27 30 35
-30 35 -30 -35 38 c-19 20 -40 35 -47 33 -7 -3 -15 0 -19 6 -5 7 -2 8 7 4 8
-4 3 2 -11 13 -14 11 -30 19 -37 16 -7 -2 -15 1 -19 7 -5 7 -2 8 7 3 10 -6 11
-5 4 3 -16 17 -148 71 -217 88 -76 19 -89 30 -141 118 -60 101 -42 118 126
112 68 -3 105 -9 123 -21z m-282 -80 c25 -47 46 -93 46 -104 0 -20 -54 -60
-161 -120 -66 -37 -81 -38 -153 -11 -81 31 -192 60 -226 60 -39 0 -98 -24
-128 -53 -46 -43 -63 -160 -52 -353 l5 -81 97 -31 c103 -33 316 -124 301 -129
-5 -2 -47 14 -94 36 -46 21 -136 55 -198 75 -92 30 -120 35 -138 27 -31 -14
-29 -29 5 -36 64 -13 237 -67 240 -76 2 -5 8 -7 13 -3 15 9 127 -57 163 -96
67 -74 95 -202 67 -303 -24 -86 -63 -115 -296 -226 l-209 -101 -28 27 c-48 46
-159 247 -191 348 -9 28 -21 73 -26 102 l-10 52 73 108 c41 59 108 141 150
181 71 68 75 75 68 105 -12 57 -8 249 7 301 33 112 157 177 250 130 18 -9 34
-14 37 -11 3 2 -9 10 -26 17 -16 7 -30 18 -30 25 0 20 46 71 85 95 24 15 35
29 35 45 0 19 10 27 56 45 57 21 134 37 191 39 29 1 34 -4 77 -84z m-377 26
c-31 -16 -85 -51 -120 -77 -34 -26 -53 -37 -42 -24 25 28 124 96 168 115 57
25 54 16 -6 -14z m-487 -124 c0 -2 -10 -12 -22 -23 l-23 -19 19 23 c18 21 26
27 26 19z m1130 -101 c153 -65 230 -138 230 -216 0 -56 -97 -228 -152 -268 -9
-7 -23 -18 -30 -25 -30 -28 -160 -27 -221 2 -68 33 -92 69 -132 194 -44 137
-46 174 -14 218 13 19 22 36 21 39 -2 2 2 6 9 9 7 2 9 -1 4 -9 -5 -9 -4 -11 4
-6 6 4 9 11 6 16 -3 5 16 20 42 34 26 13 57 32 68 40 26 21 69 14 165 -28z
m740 -14 c88 -66 173 -183 155 -212 -3 -6 -1 -10 4 -10 15 0 14 -53 -1 -68 -7
-7 -21 -12 -32 -12 -19 0 -18 2 4 13 14 7 26 21 27 32 3 18 2 18 -6 -1 -10
-23 -57 -37 -81 -24 -8 5 -31 25 -50 46 -19 21 -27 32 -17 25 9 -7 17 -9 17
-3 0 12 -25 34 -32 27 -3 -3 -11 3 -19 12 -13 16 -12 17 4 4 22 -18 22 -6 -2
27 -30 44 -54 95 -62 132 l-7 35 -1 -33 c0 -18 8 -51 19 -72 11 -22 18 -40 15
-40 -11 0 -45 82 -45 109 0 56 45 61 110 13z m-1432 -22 c15 -4 -8 -5 -53 -3
-72 5 -83 3 -105 -16 -25 -22 -25 -22 -1 -11 14 7 59 11 116 8 51 -1 88 0 82
4 -23 15 10 8 83 -17 41 -14 78 -31 82 -38 18 -28 108 -321 108 -353 0 -25 -9
-44 -34 -72 -49 -53 -97 -51 -236 10 -58 25 -129 53 -158 63 -79 25 -87 46
-87 225 0 157 9 190 58 210 22 9 96 4 145 -10z m358 -61 c-17 -20 -26 -42 -26
-66 0 -38 53 -231 76 -274 35 -69 130 -114 224 -107 33 2 55 1 48 -4 -7 -4
-40 -8 -72 -8 -68 0 -122 22 -180 73 -33 28 -41 46 -72 152 -45 152 -48 204
-15 239 34 37 48 32 17 -5z m1222 -301 c32 -19 34 -19 52 -3 19 17 22 17 61 0
22 -11 60 -41 84 -68 45 -52 149 -240 143 -258 -2 -6 -24 15 -48 47 -49 65
-232 266 -237 260 -2 -2 11 -18 28 -37 72 -77 95 -124 139 -284 12 -41 17 -53
14 -30 -3 22 -18 77 -33 123 -15 45 -24 82 -21 82 8 0 91 -104 143 -178 33
-46 40 -67 58 -172 11 -66 19 -137 17 -158 l-3 -37 -14 28 -14 27 -22 -67
c-46 -145 -71 -168 -140 -127 -73 42 -101 85 -125 187 -11 49 -29 110 -40 134
-27 62 -119 189 -178 246 l-50 49 -58 -12 c-75 -16 -214 -66 -326 -118 -49
-22 -88 -37 -88 -33 0 16 147 82 285 130 l140 48 27 93 c44 153 104 190 206
128z m-2328 -41 c0 -2 -10 -12 -22 -23 l-23 -19 19 23 c18 21 26 27 26 19z
m-40 -51 c0 -2 -8 -10 -17 -17 -16 -13 -17 -12 -4 4 13 16 21 21 21 13z m368
-93 c-32 -36 -137 -202 -143 -226 -4 -13 0 -50 9 -83 18 -71 15 -80 -8 -20
-22 59 -34 67 -108 76 -69 8 -76 5 -110 -44 l-21 -31 34 33 c28 25 43 32 76
32 56 0 91 -15 103 -42 56 -139 101 -231 146 -303 93 -149 90 -137 58 -214
-86 -208 -137 -263 -200 -217 -17 13 -16 14 21 10 28 -4 46 -1 60 11 20 16 20
16 -2 6 -45 -22 -74 -13 -119 35 -58 64 -140 215 -176 327 -34 104 -43 237
-18 292 7 17 13 33 12 36 0 3 19 31 44 62 47 60 129 130 204 174 25 14 67 43
94 65 52 41 69 49 44 21z m1867 -125 c92 -106 174 -321 175 -462 0 -57 -28
-108 -122 -223 -63 -78 -102 -113 -125 -113 -9 0 -54 31 -102 69 -122 97 -351
252 -351 237 0 -3 55 -51 123 -107 158 -133 230 -198 241 -218 5 -9 -13 4 -40
29 -27 26 -103 89 -169 141 -191 152 -234 212 -235 322 0 128 61 194 260 282
104 45 247 95 277 95 14 0 38 -19 68 -52z m-2478 -170 c-3 -7 -5 -2 -5 12 0
14 2 19 5 13 2 -7 2 -19 0 -25z m542 -188 c11 -24 11 -24 -3 -6 -9 11 -16 24
-16 30 0 12 5 7 19 -24z m-383 -115 c9 -14 36 -69 60 -122 53 -117 97 -191
147 -249 22 -25 33 -44 25 -44 -28 0 -110 128 -173 271 -70 160 -75 166 -110
152 -19 -7 -45 -55 -44 -80 0 -10 5 -3 12 16 13 38 37 57 59 49 7 -3 37 -62
66 -131 29 -68 84 -180 123 -247 38 -67 72 -134 75 -149 9 -43 -22 -61 -109
-68 -106 -8 -122 -2 -152 57 -100 197 -125 453 -54 544 26 33 54 33 75 1z
m994 7 c0 -5 -98 -56 -218 -114 -119 -58 -222 -112 -228 -119 -16 -21 -76
-199 -71 -212 3 -7 21 24 41 68 20 44 42 91 49 105 9 18 65 52 217 127 113 56
220 105 237 109 26 5 43 0 82 -26 l50 -31 43 24 c135 78 233 43 343 -123 39
-60 77 -132 48 -93 -12 17 -67 -316 -60 -364 3 -21 8 -46 12 -55 5 -14 -7 -23
-61 -48 -93 -42 -218 -80 -263 -80 -24 0 -67 14 -117 39 l-78 39 -69 -61
c-145 -131 -188 -157 -258 -157 -109 0 -284 172 -314 308 -10 49 1 95 39 149
18 26 50 99 70 160 21 62 45 122 54 133 16 19 422 230 442 230 6 0 10 -4 10
-8z m817 -119 c37 -25 130 -93 205 -150 107 -81 142 -103 158 -98 13 4 31 0
48 -11 l26 -17 69 73 c37 40 89 103 114 139 26 36 49 69 53 74 8 9 98 -18 123
-37 17 -13 15 -19 -32 -96 -57 -91 -117 -172 -206 -275 -87 -101 -97 -120 -25
-46 75 77 196 237 245 326 20 36 40 65 45 65 4 0 13 -7 20 -15 19 -23 -10
-157 -54 -247 -67 -139 -181 -252 -253 -252 -49 0 -77 34 -124 150 -60 151
-69 149 -46 -7 9 -55 22 -99 37 -124 31 -50 32 -124 3 -180 -30 -57 -122 -141
-169 -154 -55 -15 -122 -14 -182 4 -59 18 -143 95 -230 211 -41 55 -100 165
-74 140 12 -12 74 334 77 429 3 116 2 111 21 129 29 29 78 19 151 -31z m881
-52 l-1 -46 -4 45 c-3 24 -10 51 -16 60 -11 13 -10 13 6 1 12 -10 17 -26 15
-60z m-11 -83 c-3 -7 -5 -2 -5 12 0 14 2 19 5 13 2 -7 2 -19 0 -25z m-10 -40
c-3 -8 -6 -5 -6 6 -1 11 2 17 5 13 3 -3 4 -12 1 -19z m-1070 -30 c-3 -8 -6 -5
-6 6 -1 11 2 17 5 13 3 -3 4 -12 1 -19z m-16 -113 c-8 -48 -15 -84 -18 -82 -2
3 2 43 9 91 6 47 14 83 17 81 2 -3 -1 -43 -8 -90z m-24 -147 c-2 -13 -4 -5 -4
17 -1 22 1 32 4 23 2 -10 2 -28 0 -40z m67 -240 c38 -50 80 -113 94 -140 l26
-49 -30 -24 c-16 -13 -87 -57 -158 -97 -71 -40 -140 -83 -153 -96 -23 -22 -28
-22 -96 -13 -191 27 -224 37 -292 91 -98 78 -125 113 -125 163 0 26 9 56 23
78 29 48 102 129 115 129 6 0 39 -13 74 -30 43 -20 78 -30 112 -30 52 0 197
45 274 84 26 14 52 25 57 26 6 0 41 -41 79 -92z m252 -242 c94 -29 83 -61 -40
-121 -112 -54 -248 -94 -332 -98 -53 -2 -67 1 -85 19 l-21 22 23 15 c13 8 69
39 124 70 55 30 118 69 140 86 35 27 46 30 90 27 28 -3 73 -12 101 -20z m-905
-79 c85 -59 92 -71 55 -100 -16 -13 -67 -45 -113 -72 -101 -58 -151 -65 -192
-28 -14 14 -19 21 -11 17 8 -4 2 8 -15 28 -32 39 -45 46 -45 24 0 -7 -9 -16
-21 -19 -19 -5 -19 -4 4 26 13 18 36 55 50 84 37 72 56 83 148 83 74 0 79 -1
140 -43z m-290 -164 c13 -16 12 -17 -3 -4 -17 13 -22 21 -14 21 2 0 10 -8 17
-17z m886 -169 c-3 -3 -12 -4 -19 -1 -8 3 -5 6 6 6 11 1 17 -2 13 -5z m-40
-10 c-3 -3 -12 -4 -19 -1 -8 3 -5 6 6 6 11 1 17 -2 13 -5z m-50 -10 c-3 -3
-12 -4 -19 -1 -8 3 -5 6 6 6 11 1 17 -2 13 -5z"/>
<path d="M2135 3103 c6 -5 29 -24 53 -42 141 -109 141 -360 -1 -445 -23 -14
-37 -26 -31 -26 5 0 31 14 58 30 153 97 119 387 -56 476 -18 9 -28 12 -23 7z"/>
<path d="M3565 3482 c11 -13 29 -28 40 -34 21 -11 18 -8 -30 32 -29 24 -29 24
-10 2z"/>
<path d="M3731 2954 c-2 -21 29 -237 40 -277 6 -22 18 -51 26 -64 19 -29 92
-83 112 -83 8 0 -7 14 -33 32 -65 42 -82 74 -102 187 -21 120 -42 219 -43 205z"/>
<path d="M3922 2900 c0 -14 2 -19 5 -12 2 6 2 18 0 25 -3 6 -5 1 -5 -13z"/>
<path d="M3932 2850 c0 -14 2 -19 5 -12 2 6 2 18 0 25 -3 6 -5 1 -5 -13z"/>
<path d="M3942 2790 c0 -19 2 -27 5 -17 2 9 2 25 0 35 -3 9 -5 1 -5 -18z"/>
<path d="M3952 2710 c0 -19 2 -27 5 -17 2 9 2 25 0 35 -3 9 -5 1 -5 -18z"/>
<path d="M3963 2625 c0 -27 2 -38 4 -22 2 15 2 37 0 50 -2 12 -4 0 -4 -28z"/>
<path d="M1505 2950 c-11 -5 -32 -9 -47 -9 -28 -1 -84 -19 -77 -25 9 -8 143
21 147 32 4 14 4 14 -23 2z"/>
<path d="M1123 2390 c0 -41 2 -58 4 -37 2 20 2 54 0 75 -2 20 -4 3 -4 -38z"/>
<path d="M2344 2385 c-62 -97 -144 -277 -144 -315 0 -62 59 -277 60 -219 0 8
-9 55 -20 105 -11 49 -20 101 -20 117 0 15 37 99 86 193 87 167 106 224 38
119z"/>
<path d="M1663 2047 c-55 -83 -58 -134 -12 -225 44 -88 164 -190 244 -207 21
-5 15 1 -21 18 -71 34 -182 141 -210 202 -32 68 -32 136 1 194 30 52 29 64 -2
18z"/>
<path d="M3438 1842 c2 -27 -1 -65 -7 -84 -15 -46 -75 -114 -130 -150 -25 -15
-38 -28 -29 -28 38 0 139 96 165 157 15 36 17 121 4 141 -5 8 -6 -7 -3 -36z"/>
<path d="M1950 1225 c0 -2 10 -10 23 -16 20 -11 21 -11 8 4 -13 16 -31 23 -31
12z"/>
<path d="M3171 4016 c10 -9 89 -46 89 -41 0 5 -75 45 -86 45 -4 0 -5 -2 -3 -4z"/>
<path d="M3845 3443 c15 -24 30 -43 32 -43 7 0 -31 61 -46 73 -8 7 -2 -7 14
-30z"/>
<path d="M1166 3225 c-9 -26 -7 -32 5 -12 6 10 9 21 6 23 -2 3 -7 -2 -11 -11z"/>
<path d="M1121 2934 c0 -11 3 -14 6 -6 3 7 2 16 -1 19 -3 4 -6 -2 -5 -13z"/>
<path d="M1112 2880 c0 -14 2 -19 5 -12 2 6 2 18 0 25 -3 6 -5 1 -5 -13z"/>
<path d="M1101 2824 c0 -11 3 -14 6 -6 3 7 2 16 -1 19 -3 4 -6 -2 -5 -13z"/>
<path d="M1024 2555 c0 -66 1 -92 3 -57 2 34 2 88 0 120 -2 31 -3 3 -3 -63z"/>
<path d="M1420 1606 c0 -2 8 -10 18 -17 15 -13 16 -12 3 4 -13 16 -21 21 -21
13z"/>
<path d="M1499 1513 c29 -35 75 -83 102 -107 51 -46 159 -106 189 -106 30 0
70 49 69 84 -2 26 -2 27 -6 7 -23 -122 -136 -87 -321 98 -75 75 -79 78 -33 24z"/>
<path d="M3419 1503 c-13 -16 -12 -17 4 -4 16 13 21 21 13 21 -2 0 -10 -8 -17
-17z"/>
<path d="M1805 1460 c21 -22 41 -40 44 -40 3 0 -13 18 -34 40 -21 22 -41 40
-44 40 -3 0 13 -18 34 -40z"/>
<path d="M2311 1285 c3 -2 70 -16 149 -29 109 -19 148 -30 164 -46 18 -17 19
-23 8 -41 -11 -18 -11 -20 0 -17 7 3 14 16 16 30 5 39 -36 58 -187 84 -142 25
-157 27 -150 19z"/>
<path d="M2528 1273 c7 -3 16 -2 19 1 4 3 -2 6 -13 5 -11 0 -14 -3 -6 -6z"/>
<path d="M2558 1143 c12 -2 30 -2 40 0 9 3 -1 5 -23 4 -22 0 -30 -2 -17 -4z"/>
<path d="M2032 1134 c7 -6 460 -5 467 1 2 3 -103 5 -234 5 -131 0 -236 -3
-233 -6z"/>
</g>
</svg>