<?xml version="1.0" encoding="UTF-8"?>
<svg id="Layer_1" data-name="Layer 1" xmlns="http://www.w3.org/2000/svg" version="1.1" viewBox="0 0 38 38">
  <defs>
    <style>
      .cls-1 {
        fill: #000;
        stroke-width: 0px;
      }
    </style>
  </defs>
  <path class="cls-1" d="M0,19C0,8.5,8.5,0,19,0s19,8.5,19,19-8.5,19-19,19S0,29.5,0,19ZM12,36.2c.6.2,1.2.4,1.8.6-1.7-1.2-3.2-2.6-4.5-4.1,2.1.7,4.3,1.1,6.5,1.2.3,0,.6,0,.8,0,1.8,0,3.7-.2,5.5-.7,0,0,.2,0,.3,0,3.9,0,7.7-.9,11.1-2.6.3-.4.6-.7.8-1.1-3.1,1.7-6.5,2.8-10,3.1,1.8-.6,3.5-1.5,5.1-2.6,1.7,0,3.3-.2,5-.6,2.6-3.9,3.6-8.5,2.9-13.1-.7,5.4-3.7,10-8.1,13.1-.2,0-.3,0-.5,0-9.3,0-17.5-4.8-22.2-12C7.4,10.8,10.6,5,15.3.8c-.4,0-.8.2-1.2.3-4.2,4-7.2,9.4-8.1,15.4-1.3-2.2-2.3-4.6-3-7C1.3,12.4.4,15.7.4,19c0,.4,0,.8,0,1.2.3.5.6,1,.9,1.5.8,1.2,1.7,2.4,2.7,3.4.7,1.7,1.5,3.4,2.5,4.9.3.4.6.8.8,1.2-1.5-.7-2.9-1.5-4.2-2.5,1.9,3,4.5,5.3,7.7,6.9-.3-.4-.5-.8-.8-1.2.6.6,1.2,1.1,1.8,1.6h0ZM30.6,23.4h2.3s-6.1-10.8-6.1-10.8l-2.5,4.6-1.9,3.4,5.5-2,2.6,4.9ZM13.7,23.4h4c1.6,0,3-1.4,3-3,0-.7-.3-1.4-.7-1.9.5-.5.7-1.2.7-1.9,0-.6-.2-1.3-.5-1.7-.4.4-1,.8-1.8,1,.1.2.3.5.3.7,0,.5-.4.9-.9.9,0,0,0,0,0,0h-1.9s0-1.6,0-1.6h-2.1s0,0,0,0v7.5ZM21.7,22l-.8,1.4h2.4l1.3-2.3-2.9.9ZM13.7,14.6h3.4c1.7,0,3-1.4,3-3,0-1.7-1.4-3-3-3h-1.1c-.5,0-.9-.4-.9-.9,0-.5.4-.9.9-.9,0,0,0,0,0,0h3.4v-2.1h-3.4c-1.7,0-3,1.4-3,3,0,1.7,1.4,3,3,3h1.1c.5,0,.9.4.9.9,0,.5-.4.9-.9.9,0,0,0,0,0,0h-3.4v2.1ZM29.1,14.2h2.4l-5.2-9.5-3.7,6.6,4.2-1.4,2.3,4.2ZM21.8,12.8l-.8,1.4h2.4l1.3-2.3-2.9.9ZM15.8,33.3c-2.4,0-4.8-.5-7-1.4-.6-1.2-1-2.5-1.4-3.8,3.2,2.5,7.1,4.1,11.1,4.8.4,0,.8.1,1.2.2-1,.1-2.1.2-3.1.2-.3,0-.5,0-.8,0h0ZM18.6,32.3c-4.2-.7-8.2-2.5-11.5-5.2-.5-2.1-.8-4.3-.8-6.5,0-.8,0-1.7.1-2.5,4.8,7,12.8,11.6,21.9,11.7-2,1.2-4.1,2.1-6.3,2.7-1.2,0-2.3-.1-3.5-.3ZM7.1,29.8c-.7-1.1-1.4-2.3-1.9-3.5.4.4.9.8,1.3,1.2.3,1,.6,1.9.9,2.9-.1-.2-.2-.4-.4-.6h0ZM4.6,24.8c-1.7-4.3-2.3-9.1-1.8-13.9.7,2.3,1.8,4.5,3.1,6.5-.4,3-.2,6.1.4,9.1-.6-.5-1.2-1.1-1.7-1.7ZM15.8,19.5h1.9c.5,0,.9.4.9.9s-.4.9-.9.9c0,0,0,0,0,0h-1.9s0-1.7,0-1.7Z"/>
</svg>